<?xml version="1.0" encoding="UTF-8"?>
<svg version="1.1" xmlns="http://www.w3.org/2000/svg" width="500" height="500">
<path d="M0 0 C0.86124481 -0.0127597 1.72248962 -0.02551941 2.60983276 -0.03866577 C3.53281158 -0.04089142 4.45579041 -0.04311707 5.40673828 -0.04541016 C6.8418425 -0.05539536 6.8418425 -0.05539536 8.30593872 -0.06558228 C10.32828857 -0.07569907 12.35067174 -0.0803996 14.37304688 -0.08007812 C17.45905895 -0.08444718 20.54363579 -0.12076588 23.62939453 -0.15869141 C25.59683757 -0.16456066 27.56428739 -0.16852933 29.53173828 -0.17041016 C30.91013382 -0.19196671 30.91013382 -0.19196671 32.31637573 -0.21395874 C37.8918435 -0.17441366 41.27389625 0.42666425 45.60205078 4.29052734 C48.8542767 8.28179787 49.0565328 12.03113298 49.03564453 17.00537109 C49.04088638 17.73873184 49.04612823 18.47209259 49.05152893 19.22767639 C49.05793025 20.77327208 49.05663663 22.31891661 49.0480957 23.86450195 C49.03958816 26.21768753 49.06836425 28.56844077 49.10009766 30.92138672 C49.10171009 32.42854746 49.10113134 33.93571245 49.09814453 35.44287109 C49.10937851 36.13992661 49.12061249 36.83698212 49.13218689 37.55516052 C49.06102586 42.59292584 47.83949614 45.46344774 44.60205078 49.29052734 C39.60205078 52.29052734 39.60205078 52.29052734 22.60205078 52.29052734 C22.60205078 71.43052734 22.60205078 90.57052734 22.60205078 110.29052734 C102.46205078 110.29052734 182.32205078 110.29052734 264.60205078 110.29052734 C264.60205078 91.15052734 264.60205078 72.01052734 264.60205078 52.29052734 C258.99205078 52.29052734 253.38205078 52.29052734 247.60205078 52.29052734 C241.1069929 48.39349261 241.1069929 48.39349261 238.60205078 44.29052734 C238.19943911 41.4398156 238.01664084 38.98431876 238.03564453 36.13818359 C238.02944595 35.36043076 238.02324738 34.58267792 238.01686096 33.78135681 C238.00977884 32.14160408 238.01290878 30.50177919 238.02563477 28.86206055 C238.03949241 26.36355159 238.00542362 23.86879791 237.96728516 21.37060547 C237.96633374 19.77229727 237.96819399 18.17398441 237.97314453 16.57568359 C237.95988632 15.83488052 237.94662811 15.09407745 237.93296814 14.33082581 C238.00149995 10.48046165 238.53094911 7.88880645 240.89135742 4.89770508 C244.49412211 1.43252232 247.00524712 0.05045609 252 0 C252.86124481 -0.0127597 253.72248962 -0.02551941 254.60983276 -0.03866577 C255.53281158 -0.04089142 256.45579041 -0.04311707 257.40673828 -0.04541016 C258.8418425 -0.05539536 258.8418425 -0.05539536 260.30593872 -0.06558228 C262.32828857 -0.07569907 264.35067174 -0.0803996 266.37304688 -0.08007812 C269.45905895 -0.08444718 272.54363579 -0.12076588 275.62939453 -0.15869141 C277.59683757 -0.16456066 279.56428739 -0.16852933 281.53173828 -0.17041016 C282.91013382 -0.19196671 282.91013382 -0.19196671 284.31637573 -0.21395874 C289.8918435 -0.17441366 293.27389625 0.42666425 297.60205078 4.29052734 C300.8542767 8.28179787 301.0565328 12.03113298 301.03564453 17.00537109 C301.04088638 17.73873184 301.04612823 18.47209259 301.05152893 19.22767639 C301.05793025 20.77327208 301.05663663 22.31891661 301.0480957 23.86450195 C301.03958816 26.21768753 301.06836425 28.56844077 301.10009766 30.92138672 C301.10171009 32.42854746 301.10113134 33.93571245 301.09814453 35.44287109 C301.10937851 36.13992661 301.12061249 36.83698212 301.13218689 37.55516052 C301.06102586 42.59292584 299.83949614 45.46344774 296.60205078 49.29052734 C291.60205078 52.29052734 291.60205078 52.29052734 274.60205078 52.29052734 C274.60205078 71.43052734 274.60205078 90.57052734 274.60205078 110.29052734 C289.81381539 110.09363399 289.81381539 110.09363399 305.0246582 109.84008789 C321.32470578 109.65787736 333.44533723 111.42474369 345.60205078 123.29052734 C360.61598865 139.18916866 359.9070169 158.01727987 359.72705078 178.60302734 C359.71699787 180.61539267 359.70787612 182.62776287 359.69970703 184.64013672 C359.67788364 189.52372275 359.64348193 194.40706992 359.60205078 199.29052734 C360.69876099 199.26696167 360.69876099 199.26696167 361.81762695 199.24291992 C365.14152238 199.18042383 368.46529399 199.14148982 371.78955078 199.10302734 C372.94003906 199.07789063 374.09052734 199.05275391 375.27587891 199.02685547 C376.94360352 199.01235352 376.94360352 199.01235352 378.64501953 198.99755859 C379.66619873 198.98184814 380.68737793 198.9661377 381.73950195 198.94995117 C386.2719941 199.48921143 389.70100104 201.80926766 392.60205078 205.29052734 C393.89420446 209.16698837 393.76597203 212.84827544 393.77905273 216.8894043 C393.78562393 217.76777954 393.79219513 218.64615479 393.79896545 219.55114746 C393.81868953 222.4603687 393.83035859 225.36953836 393.84033203 228.27880859 C393.84440756 229.27253164 393.84848309 230.26625469 393.85268211 231.29009056 C393.87353825 236.54894172 393.88784241 241.80776682 393.8972168 247.06665039 C393.90828507 252.4974168 393.94269124 257.92777392 393.9823885 263.35839558 C394.00853457 267.53544374 394.01690682 271.71239403 394.02049828 275.88951683 C394.02536879 277.8913773 394.03699598 279.89323327 394.05553627 281.89501381 C394.07988658 284.69816159 394.07897027 287.50024561 394.07202148 290.3034668 C394.09123657 291.54041542 394.09123657 291.54041542 394.11083984 292.80235291 C394.06320444 298.08190337 393.19016116 301.16386589 389.60205078 305.29052734 C385.92143204 308.16465256 383.2632566 308.65454589 378.64501953 308.58349609 C377.53320312 308.57382812 376.42138672 308.56416016 375.27587891 308.55419922 C374.12539063 308.5290625 372.97490234 308.50392578 371.78955078 308.47802734 C370.61972656 308.46449219 369.44990234 308.45095703 368.24462891 308.43701172 C365.36329878 308.40173013 362.48291174 308.35243014 359.60205078 308.29052734 C359.606492 309.36190948 359.61093323 310.43329163 359.61550903 311.53713989 C359.6562415 321.68690524 359.68612403 331.83665376 359.70567513 341.98648262 C359.71606476 347.20326294 359.73013481 352.41997671 359.75292969 357.63671875 C359.77483136 362.68122884 359.78665555 367.72567534 359.79180527 372.77022934 C359.79547018 374.68451817 359.80262577 376.59880395 359.81351089 378.51306534 C359.92014164 398.06170449 359.41216399 415.06098463 345.09033203 430.03271484 C335.1515077 439.05098872 323.85778566 443.40596759 310.49646664 443.42195511 C309.28728256 443.42579625 308.07809849 443.4296374 306.83227247 443.43359494 C305.51234896 443.43272846 304.19242546 443.43186198 302.83250427 443.43096924 C301.4094092 443.43355458 299.98631486 443.43656821 298.56322151 443.43997264 C294.65692739 443.44802618 290.75065166 443.44983129 286.84435022 443.45057011 C282.62943873 443.45242356 278.41453673 443.45997241 274.19963074 443.46670532 C264.98453233 443.48027796 255.76943828 443.48631183 246.55433154 443.49071598 C240.79755801 443.49348048 235.04078615 443.49771824 229.28401375 443.50222015 C213.33748575 443.51441194 197.39095909 443.5247111 181.44442654 443.52809525 C180.42411408 443.52831481 179.40380162 443.52853438 178.3525706 443.5287606 C177.32984816 443.52897887 176.30712573 443.52919715 175.25341171 443.52942204 C173.18106679 443.52986551 171.10872187 443.53031207 169.03637695 443.53076172 C167.49445245 443.53109386 167.49445245 443.53109386 165.92137796 443.53143272 C149.27274937 443.53537896 132.62416459 443.55282809 115.97555291 443.57612124 C98.87256076 443.59985644 81.76959057 443.6122981 64.66658169 443.61346316 C55.06800993 443.61437876 45.46949526 443.62010187 35.87093925 443.63828278 C27.69585244 443.65371311 19.52084035 443.65878699 11.34574174 443.65054467 C7.17805982 443.64664841 3.01052824 443.64751747 -1.15713501 443.66160202 C-4.98002029 443.67440269 -8.80264321 443.67308987 -12.62552845 443.66101131 C-14.64768524 443.65814996 -16.66984683 443.66994321 -18.69196707 443.68243337 C-34.05838017 443.5999345 -47.20926787 440.21950243 -58.71044922 429.60302734 C-69.9564419 417.53530242 -72.58273624 403.95279373 -72.51147461 388.09887695 C-72.51162064 387.22949493 -72.51176666 386.36011292 -72.51191711 385.46438599 C-72.51122688 382.6238546 -72.50347663 379.78339086 -72.49560547 376.94287109 C-72.49373812 374.9603326 -72.49231571 372.97779364 -72.49131775 370.99525452 C-72.4875175 365.80199894 -72.47770874 360.60877177 -72.46661377 355.41552734 C-72.45634582 350.10628646 -72.45180864 344.79704094 -72.44677734 339.48779297 C-72.43608403 329.08869202 -72.41903785 318.68961205 -72.39794922 308.29052734 C-73.12385254 308.31147461 -73.84975586 308.33242188 -74.59765625 308.35400391 C-77.90594477 308.43746384 -81.21401133 308.48928273 -84.52294922 308.54052734 C-85.66505859 308.57404297 -86.80716797 308.60755859 -87.98388672 308.64208984 C-98.75365779 308.76731974 -98.75365779 308.76731974 -103.39794922 304.29052734 C-106.90038505 299.78273006 -106.84269179 295.86204967 -106.83374023 290.38867188 C-106.84381607 289.5018573 -106.85389191 288.61504272 -106.86427307 287.70135498 C-106.89272603 284.77522104 -106.89862824 281.84960343 -106.90185547 278.92333984 C-106.91149828 276.88459055 -106.92159089 274.84584333 -106.93211365 272.80709839 C-106.95006826 268.53508696 -106.95563534 264.26325743 -106.95385742 259.99121094 C-106.95355258 254.52443105 -106.99451131 249.05882039 -107.04617405 243.59231758 C-107.07957529 239.38173087 -107.08561385 235.17142568 -107.08402824 230.96072006 C-107.08756233 228.94571781 -107.10079832 226.93070781 -107.12402534 224.91583633 C-107.15351595 222.09345499 -107.14476297 219.27359629 -107.12670898 216.45117188 C-107.1435675 215.62392609 -107.16042603 214.7966803 -107.17779541 213.94436646 C-107.08893413 208.46092523 -105.70562306 205.6139687 -101.97779751 201.59737968 C-98.78640001 198.95745197 -95.58814588 199.17281061 -91.63623047 199.19287109 C-90.51796875 199.19609375 -89.39970703 199.19931641 -88.24755859 199.20263672 C-87.0803125 199.21101562 -85.91306641 199.21939453 -84.71044922 199.22802734 C-83.53160156 199.23253906 -82.35275391 199.23705078 -81.13818359 199.24169922 C-78.22472133 199.25349461 -75.31136059 199.26995464 -72.39794922 199.29052734 C-72.41365967 197.43874878 -72.41365967 197.43874878 -72.4296875 195.54956055 C-72.46625372 190.91075614 -72.48898118 186.27196411 -72.5078125 181.63305664 C-72.51778748 179.63628996 -72.5313723 177.63953756 -72.54882812 175.64282227 C-72.71653699 155.94689589 -72.68132729 138.41556027 -58.39794922 123.29052734 C-46.24123567 111.42474369 -34.12060422 109.65787736 -17.82055664 109.84008789 C-15.43297119 109.88560791 -13.04538574 109.93112793 -10.58544922 109.97802734 C-2.93357422 110.08115234 4.71830078 110.18427734 12.60205078 110.29052734 C12.60205078 91.15052734 12.60205078 72.01052734 12.60205078 52.29052734 C6.99205078 52.29052734 1.38205078 52.29052734 -4.39794922 52.29052734 C-10.8930071 48.39349261 -10.8930071 48.39349261 -13.39794922 44.29052734 C-13.80056089 41.4398156 -13.98335916 38.98431876 -13.96435547 36.13818359 C-13.97055405 35.36043076 -13.97675262 34.58267792 -13.98313904 33.78135681 C-13.99022116 32.14160408 -13.98709122 30.50177919 -13.97436523 28.86206055 C-13.96050759 26.36355159 -13.99457638 23.86879791 -14.03271484 21.37060547 C-14.03366626 19.77229727 -14.03180601 18.17398441 -14.02685547 16.57568359 C-14.04011368 15.83488052 -14.05337189 15.09407745 -14.06703186 14.33082581 C-13.99850005 10.48046165 -13.46905089 7.88880645 -11.10864258 4.89770508 C-7.50587789 1.43252232 -4.99475288 0.05045609 0 0 Z M-53.39794922 131.29052734 C-60.5448472 140.50208474 -62.70219805 148.2826283 -62.66537476 159.70111084 C-62.66990587 160.73655289 -62.67443698 161.77199494 -62.6791054 162.83881402 C-62.69174572 166.30160523 -62.69012924 169.76423908 -62.68847656 173.22705078 C-62.69446205 175.71266888 -62.70126764 178.19828513 -62.70883179 180.68389893 C-62.72466297 186.73125574 -62.73094012 192.7785509 -62.73205654 198.8259227 C-62.73300836 203.74414543 -62.73712531 208.66235535 -62.74345779 213.58057404 C-62.76106327 227.53923343 -62.77029782 241.49786211 -62.76879685 255.45653269 C-62.76871693 256.20838178 -62.76863702 256.96023088 -62.76855469 257.73486328 C-62.76847293 258.48763551 -62.76839116 259.24040773 -62.76830693 260.01599124 C-62.76749435 272.21050354 -62.78662658 284.40489222 -62.81483142 296.59936878 C-62.84359513 309.13487986 -62.85736978 321.67033073 -62.85564387 334.20587564 C-62.85498114 341.2378666 -62.86042173 348.269728 -62.88199997 355.30168915 C-62.90217133 361.91733481 -62.90150248 368.53275419 -62.88696671 375.14842987 C-62.88487823 377.57233073 -62.88958173 379.99624871 -62.90168762 382.42012024 C-62.91718004 385.73773559 -62.90780462 389.05441335 -62.89242554 392.37200928 C-62.90271266 393.32349405 -62.91299979 394.27497882 -62.92359865 395.25529647 C-62.81163638 406.23980986 -58.97859281 415.35332997 -51.39794922 423.29052734 C-39.90134031 433.99838762 -26.60677495 434.44224049 -11.67814636 434.42424011 C-10.28489839 434.4261103 -8.89165095 434.42841184 -7.49840432 434.43110543 C-3.68397789 434.43720404 0.13042657 434.43709213 3.94485676 434.43591106 C8.06425952 434.43570656 12.18365532 434.44123046 16.30305481 434.44596863 C24.36824929 434.45426494 32.43343646 434.457023 40.49863485 434.45758101 C47.05584539 434.45805662 53.61305352 434.46011364 60.17026329 434.46328163 C78.77136163 434.47208519 97.37245421 434.47670144 115.97355465 434.47595116 C116.97574597 434.4759112 117.97793729 434.47587125 119.01049805 434.47583008 C120.01391641 434.4757892 121.01733478 434.47574832 122.05115976 434.4757062 C138.31301046 434.47529974 154.574838 434.48486991 170.836682 434.49896844 C187.54422338 434.51333882 204.25175346 434.52023827 220.95930117 434.51937467 C230.33531751 434.51904294 239.71130957 434.52177938 249.08732033 434.53255272 C257.06990121 434.54166639 265.0524468 434.54382582 273.03503064 434.5370433 C277.10523425 434.53378256 281.17537019 434.53370527 285.24556732 434.54239655 C288.97693447 434.55028215 292.7081805 434.54880919 296.43954476 434.54011241 C298.41734694 434.53786106 300.39515293 434.54538983 302.37294036 434.55335206 C316.71640593 434.49812339 328.97390402 432.35215561 339.78173828 422.31005859 C347.75450793 413.46473261 349.90809553 404.40684505 349.86274719 392.8664856 C349.86657274 391.82963241 349.87039829 390.79277923 349.87433976 389.72450626 C349.88464223 386.25704085 349.88068279 382.78974188 349.87670898 379.32226562 C349.88105698 376.83340298 349.88624042 374.34454168 349.89219666 371.85568237 C349.90419809 365.80097134 349.90673916 359.74632551 349.90439639 353.69160856 C349.90261139 348.76860189 349.90436677 343.84560867 349.90862083 338.92260361 C349.90951362 337.87051138 349.90951362 337.87051138 349.91042444 336.79716476 C349.91163622 335.37214908 349.91285036 333.9471334 349.91406681 332.52211772 C349.9249368 319.16594067 349.92278246 305.80978888 349.91668197 292.45361041 C349.91151365 280.24483518 349.92276696 268.03613976 349.94178019 255.82738031 C349.96116952 243.28058001 349.96941265 230.73381744 349.96565694 218.18700206 C349.96374651 211.14727646 349.96621697 204.10761878 349.98037148 197.06790543 C349.99354882 190.44736533 349.99101037 183.82695843 349.97796059 177.20640945 C349.97559415 174.77844692 349.97833186 172.35047316 349.98658371 169.9225235 C349.99704682 166.6043426 349.98895341 163.28669813 349.97627258 159.96853638 C349.98364687 159.01122592 349.99102115 158.05391546 349.9986189 157.0675956 C349.90857313 145.84227302 346.05825463 137.65664082 338.60205078 129.29052734 C328.38397514 120.25525146 318.51242198 118.84046508 305.23049927 118.90284729 C303.77863748 118.89866955 302.32677896 118.89318963 300.87492645 118.88652748 C296.90307775 118.87211169 292.93143723 118.87630543 288.95957732 118.88369429 C284.66907682 118.88843328 280.37862089 118.87590964 276.08813477 118.86567688 C267.68951147 118.84849772 259.29096303 118.84764706 250.89232673 118.85288978 C244.06434775 118.85693445 237.23639086 118.8554844 230.40841293 118.85014153 C229.43588114 118.8493931 228.46334934 118.84864468 227.46134689 118.84787358 C225.48551973 118.84634207 223.50969258 118.84480372 221.53386544 118.84325861 C203.01286125 118.8295367 184.49189933 118.83496904 165.97089611 118.84644382 C149.03655814 118.85637534 132.10232945 118.84343639 115.16800834 118.81950963 C97.768858 118.79511182 80.36975853 118.78551248 62.97059143 118.79216236 C53.20668159 118.79565313 43.44285578 118.7934319 33.67895889 118.77591133 C25.36698415 118.76118082 17.05515261 118.760565 8.74318065 118.77798224 C4.50480797 118.78648772 0.26669102 118.78865296 -3.97166824 118.77333069 C-7.85670641 118.75945994 -11.74127037 118.764277 -15.62628128 118.78356992 C-17.02660111 118.78732297 -18.42695914 118.78442806 -19.82724486 118.77395827 C-33.26482325 118.68068507 -43.81214537 121.50909485 -53.39794922 131.29052734 Z M-95.39794922 208.29052734 C-97.96169541 210.85427353 -97.64207345 212.54304328 -97.66900635 216.0382843 C-97.66495789 216.84146591 -97.66090942 217.64464752 -97.65673828 218.47216797 C-97.66024292 219.31780807 -97.66374756 220.16344818 -97.6673584 221.03471375 C-97.67618367 223.83881768 -97.67032378 226.64267071 -97.66357422 229.44677734 C-97.66492064 231.38968962 -97.66686098 233.33260157 -97.66937256 235.2755127 C-97.6723249 239.35102541 -97.66802264 243.42645057 -97.65869141 247.50195312 C-97.64729682 252.7346112 -97.6538557 257.96706412 -97.66583633 263.19971466 C-97.67305196 267.21276403 -97.67076837 271.22576449 -97.66558075 275.23881531 C-97.66424343 277.1685946 -97.66589484 279.0983783 -97.67053986 281.02815247 C-97.67560022 283.72185076 -97.66790184 286.41521351 -97.65673828 289.10888672 C-97.66078674 289.91206833 -97.66483521 290.71524994 -97.66900635 291.54277039 C-97.80188443 295.88239628 -97.80188443 295.88239628 -95.39794922 299.29052734 C-87.80794922 299.29052734 -80.21794922 299.29052734 -72.39794922 299.29052734 C-72.39794922 269.26052734 -72.39794922 239.23052734 -72.39794922 208.29052734 C-79.98794922 208.29052734 -87.57794922 208.29052734 -95.39794922 208.29052734 Z M359.60205078 208.29052734 C359.60205078 238.32052734 359.60205078 268.35052734 359.60205078 299.29052734 C367.19205078 299.29052734 374.78205078 299.29052734 382.60205078 299.29052734 C385.16579697 296.72678116 384.84617501 295.03801141 384.87310791 291.54277039 C384.86905945 290.73958878 384.86501099 289.93640717 384.86083984 289.10888672 C384.86434448 288.26324661 384.86784912 287.41760651 384.87145996 286.54634094 C384.88028524 283.74223701 384.87442534 280.93838398 384.86767578 278.13427734 C384.8690222 276.19136507 384.87096254 274.24845311 384.87347412 272.30554199 C384.87642646 268.23002928 384.8721242 264.15460412 384.86279297 260.07910156 C384.85139838 254.84644349 384.85795727 249.61399057 384.8699379 244.38134003 C384.87715352 240.36829066 384.87486994 236.35529019 384.86968231 232.34223938 C384.86834499 230.41246008 384.8699964 228.48267639 384.87464142 226.55290222 C384.87970178 223.85920393 384.8720034 221.16584117 384.86083984 218.47216797 C384.86488831 217.66898636 384.86893677 216.86580475 384.87310791 216.0382843 C385.00598599 211.69865841 385.00598599 211.69865841 382.60205078 208.29052734 C375.01205078 208.29052734 367.42205078 208.29052734 359.60205078 208.29052734 Z " fill="#0E3D48" transform="translate(106.39794921875,15.70947265625)"/>
<path d="M0 0 C0.86124481 -0.0127597 1.72248962 -0.02551941 2.60983276 -0.03866577 C3.53281158 -0.04089142 4.45579041 -0.04311707 5.40673828 -0.04541016 C6.8418425 -0.05539536 6.8418425 -0.05539536 8.30593872 -0.06558228 C10.32828857 -0.07569907 12.35067174 -0.0803996 14.37304688 -0.08007812 C17.45905895 -0.08444718 20.54363579 -0.12076588 23.62939453 -0.15869141 C25.59683757 -0.16456066 27.56428739 -0.16852933 29.53173828 -0.17041016 C30.91013382 -0.19196671 30.91013382 -0.19196671 32.31637573 -0.21395874 C37.8918435 -0.17441366 41.27389625 0.42666425 45.60205078 4.29052734 C48.8542767 8.28179787 49.0565328 12.03113298 49.03564453 17.00537109 C49.04088638 17.73873184 49.04612823 18.47209259 49.05152893 19.22767639 C49.05793025 20.77327208 49.05663663 22.31891661 49.0480957 23.86450195 C49.03958816 26.21768753 49.06836425 28.56844077 49.10009766 30.92138672 C49.10171009 32.42854746 49.10113134 33.93571245 49.09814453 35.44287109 C49.10937851 36.13992661 49.12061249 36.83698212 49.13218689 37.55516052 C49.06102586 42.59292584 47.83949614 45.46344774 44.60205078 49.29052734 C39.60205078 52.29052734 39.60205078 52.29052734 22.60205078 52.29052734 C22.60205078 71.43052734 22.60205078 90.57052734 22.60205078 110.29052734 C102.46205078 110.29052734 182.32205078 110.29052734 264.60205078 110.29052734 C264.60205078 91.15052734 264.60205078 72.01052734 264.60205078 52.29052734 C258.99205078 52.29052734 253.38205078 52.29052734 247.60205078 52.29052734 C241.1069929 48.39349261 241.1069929 48.39349261 238.60205078 44.29052734 C238.19943911 41.4398156 238.01664084 38.98431876 238.03564453 36.13818359 C238.02944595 35.36043076 238.02324738 34.58267792 238.01686096 33.78135681 C238.00977884 32.14160408 238.01290878 30.50177919 238.02563477 28.86206055 C238.03949241 26.36355159 238.00542362 23.86879791 237.96728516 21.37060547 C237.96633374 19.77229727 237.96819399 18.17398441 237.97314453 16.57568359 C237.95988632 15.83488052 237.94662811 15.09407745 237.93296814 14.33082581 C238.00149995 10.48046165 238.53094911 7.88880645 240.89135742 4.89770508 C244.49412211 1.43252232 247.00524712 0.05045609 252 0 C252.86124481 -0.0127597 253.72248962 -0.02551941 254.60983276 -0.03866577 C255.53281158 -0.04089142 256.45579041 -0.04311707 257.40673828 -0.04541016 C258.8418425 -0.05539536 258.8418425 -0.05539536 260.30593872 -0.06558228 C262.32828857 -0.07569907 264.35067174 -0.0803996 266.37304688 -0.08007812 C269.45905895 -0.08444718 272.54363579 -0.12076588 275.62939453 -0.15869141 C277.59683757 -0.16456066 279.56428739 -0.16852933 281.53173828 -0.17041016 C282.91013382 -0.19196671 282.91013382 -0.19196671 284.31637573 -0.21395874 C289.8918435 -0.17441366 293.27389625 0.42666425 297.60205078 4.29052734 C300.8542767 8.28179787 301.0565328 12.03113298 301.03564453 17.00537109 C301.04088638 17.73873184 301.04612823 18.47209259 301.05152893 19.22767639 C301.05793025 20.77327208 301.05663663 22.31891661 301.0480957 23.86450195 C301.03958816 26.21768753 301.06836425 28.56844077 301.10009766 30.92138672 C301.10171009 32.42854746 301.10113134 33.93571245 301.09814453 35.44287109 C301.10937851 36.13992661 301.12061249 36.83698212 301.13218689 37.55516052 C301.06102586 42.59292584 299.83949614 45.46344774 296.60205078 49.29052734 C291.60205078 52.29052734 291.60205078 52.29052734 274.60205078 52.29052734 C274.60205078 71.43052734 274.60205078 90.57052734 274.60205078 110.29052734 C290.12873244 110.21149832 290.12873244 110.21149832 305.65527344 110.11035156 C307.60888449 110.10450763 309.56249799 110.09941183 311.51611328 110.09521484 C312.52182373 110.08498291 313.52753418 110.07475098 314.5637207 110.06420898 C319.65134212 110.06294623 323.83990337 110.25162275 328.60205078 112.29052734 C328.60205078 113.28052734 328.60205078 114.27052734 328.60205078 115.29052734 C327.94205078 115.95052734 327.28205078 116.61052734 326.60205078 117.29052734 C326.92056848 119.39873531 326.92056848 119.39873531 327.60205078 121.29052734 C326.57598378 121.12856275 325.54991678 120.96659815 324.49275684 120.79972553 C318.13366808 120.0124507 311.74795737 120.14203366 305.35075378 120.14335632 C303.89975824 120.14005279 302.44876361 120.1363262 300.99777013 120.13221484 C297.02372628 120.12224319 293.04969752 120.11848592 289.07564294 120.11582553 C284.78445639 120.11190832 280.49328164 120.10233134 276.20210266 120.09361267 C265.8486072 120.07389315 255.49511083 120.06378998 245.14160129 120.05488488 C240.26216361 120.05049652 235.38272701 120.04513132 230.50329018 120.03989601 C214.27873936 120.02289191 198.05418921 120.00839679 181.82963085 120.00114727 C177.62380663 119.9992375 173.41798241 119.99731714 169.2121582 119.99536133 C167.64422774 119.99463572 167.64422774 119.99463572 166.04462192 119.99389545 C149.10376212 119.98559132 132.16297284 119.96024427 115.22214385 119.92778065 C97.81851507 119.89470256 80.41492214 119.87669802 63.01126176 119.87350303 C53.24397134 119.87133916 43.4767839 119.86260783 33.70952415 119.83704185 C25.39387975 119.81532504 17.07836339 119.80728947 8.76269384 119.81700864 C4.52229241 119.82154983 0.28215513 119.81967751 -3.95820999 119.80024719 C-7.84512178 119.78259056 -11.73157719 119.78363316 -15.618494 119.79914448 C-17.0195236 119.80151672 -18.42058502 119.797217 -19.82156608 119.78531583 C-31.5713982 119.69173816 -41.10576259 121.61014052 -50.32763672 129.21240234 C-53.34753014 132.24369158 -55.62694712 135.63254815 -57.89013672 139.25146484 C-59.39794922 141.29052734 -59.39794922 141.29052734 -62.39794922 142.29052734 C-62.52169922 141.52740234 -62.64544922 140.76427734 -62.77294922 139.97802734 C-63.27897714 137.08785599 -63.27897714 137.08785599 -65.39794922 134.29052734 C-64.40794922 136.76552734 -64.40794922 136.76552734 -63.39794922 139.29052734 C-64.71794922 139.62052734 -66.03794922 139.95052734 -67.39794922 140.29052734 C-67.51912109 140.91701172 -67.64029297 141.54349609 -67.76513672 142.18896484 C-67.93271484 143.00623047 -68.10029297 143.82349609 -68.27294922 144.66552734 C-68.51658203 145.88369141 -68.51658203 145.88369141 -68.76513672 147.12646484 C-69.39794922 149.29052734 -69.39794922 149.29052734 -71.39794922 151.29052734 C-70.38905714 137.67048423 -63.92834549 127.83353744 -53.71044922 118.97802734 C-40.01677221 108.99972045 -26.89125778 109.6671523 -10.58544922 109.97802734 C-2.93357422 110.08115234 4.71830078 110.18427734 12.60205078 110.29052734 C12.60205078 91.15052734 12.60205078 72.01052734 12.60205078 52.29052734 C6.99205078 52.29052734 1.38205078 52.29052734 -4.39794922 52.29052734 C-10.8930071 48.39349261 -10.8930071 48.39349261 -13.39794922 44.29052734 C-13.80056089 41.4398156 -13.98335916 38.98431876 -13.96435547 36.13818359 C-13.97365334 34.97155434 -13.97365334 34.97155434 -13.98313904 33.78135681 C-13.99022116 32.14160408 -13.98709122 30.50177919 -13.97436523 28.86206055 C-13.96050759 26.36355159 -13.99457638 23.86879791 -14.03271484 21.37060547 C-14.03366626 19.77229727 -14.03180601 18.17398441 -14.02685547 16.57568359 C-14.04011368 15.83488052 -14.05337189 15.09407745 -14.06703186 14.33082581 C-13.99850005 10.48046165 -13.46905089 7.88880645 -11.10864258 4.89770508 C-7.50587789 1.43252232 -4.99475288 0.05045609 0 0 Z " fill="#0F3D47" transform="translate(106.39794921875,15.70947265625)"/>
<path d="M0 0 C1.08154861 -0.00960754 2.16309723 -0.01921509 3.27742004 -0.02911377 C4.44617172 -0.03336365 5.6149234 -0.03761353 6.8190918 -0.04199219 C8.02139938 -0.04769226 9.22370697 -0.05339233 10.46244812 -0.05926514 C13.00864786 -0.06871794 15.55485985 -0.07525023 18.10107422 -0.07910156 C21.99232388 -0.0888024 25.88304437 -0.11982218 29.77416992 -0.15136719 C32.24747408 -0.15789773 34.72078201 -0.163148 37.1940918 -0.16699219 C38.35677078 -0.17933899 39.51944977 -0.19168579 40.71736145 -0.20440674 C51.14083179 -0.17573422 51.14083179 -0.17573422 55.70581055 3.16113281 C56.63387277 5.94531948 56.83706651 7.63581442 56.85298157 10.51242065 C56.86013687 11.40121918 56.86729218 12.2900177 56.87466431 13.20574951 C56.87735321 14.17828674 56.88004211 15.15082397 56.8828125 16.15283203 C56.8893837 17.17911713 56.8959549 18.20540222 56.90272522 19.26278687 C56.92245944 22.66379873 56.93411978 26.06476648 56.9440918 29.46582031 C56.94816732 30.62627995 56.95224285 31.78673958 56.95644188 32.98236465 C56.97730094 39.1218676 56.99160464 45.26134819 57.00097656 51.40087891 C57.01205389 57.74869726 57.04646987 64.09616633 57.08614826 70.44386101 C57.11226065 75.3200039 57.12066352 80.19606277 57.12425804 85.07226944 C57.12913617 87.41267385 57.14078481 89.75307421 57.15929604 92.09341049 C57.18357735 95.36610597 57.18274252 98.63788704 57.17578125 101.91064453 C57.18859131 102.8791333 57.20140137 103.84762207 57.21459961 104.84545898 C57.18239956 108.99317131 57.02862028 111.55812872 55.04508972 115.26333618 C52.09875062 117.65362482 50.57739677 117.78377934 46.80737305 117.77636719 C45.02532471 117.79032532 45.02532471 117.79032532 43.20727539 117.80456543 C41.92804199 117.78817017 40.64880859 117.7717749 39.33081055 117.75488281 C38.01419434 117.7549231 36.69757813 117.75496338 35.34106445 117.75500488 C32.55671815 117.75335295 29.7731783 117.73468105 26.98901367 117.703125 C23.42444123 117.66344629 19.86092448 117.65908015 16.2961731 117.66658783 C12.89092415 117.67039973 9.48600728 117.64957386 6.08081055 117.62988281 C4.80157715 117.6296814 3.52234375 117.62947998 2.2043457 117.62927246 C1.01631348 117.6133606 -0.17171875 117.59744873 -1.39575195 117.58105469 C-2.44069824 117.5726355 -3.48564453 117.56421631 -4.56225586 117.55554199 C-7.74858626 117.09553156 -8.97069751 116.35607019 -11.29418945 114.16113281 C-11.7947607 112.0824585 -11.7947607 112.0824585 -11.7953949 109.64453125 C-11.80522903 108.71918579 -11.81506317 107.79384033 -11.82519531 106.8404541 C-11.81552734 105.82737183 -11.80585938 104.81428955 -11.79589844 103.77050781 C-11.80130142 102.70199585 -11.80670441 101.63348389 -11.81227112 100.53259277 C-11.82480385 96.9918265 -11.80823645 93.45186612 -11.7902832 89.91113281 C-11.79043808 87.45637977 -11.79192525 85.00162648 -11.79469299 82.546875 C-11.79607903 77.39865325 -11.7834843 72.25070941 -11.76074219 67.10253906 C-11.73235734 60.49446596 -11.73509234 53.88685485 -11.7478323 47.27874756 C-11.75477826 42.20878128 -11.74701252 37.13892231 -11.73457527 32.06896973 C-11.73005026 29.63204357 -11.72973309 27.19510594 -11.73364067 24.75817871 C-11.73654222 21.35579713 -11.7200958 17.95405831 -11.69824219 14.55175781 C-11.70274384 13.53867554 -11.70724548 12.52559326 -11.71188354 11.48181152 C-11.70197891 10.55646606 -11.69207428 9.63112061 -11.68186951 8.67773438 C-11.67943961 7.87321838 -11.67700972 7.06870239 -11.67450619 6.23980713 C-11.19563677 3.62247934 -10.38205974 2.76815839 -8.29418945 1.16113281 C-5.25846514 0.14922471 -3.17721449 0.02278043 0 0 Z " fill="#FEB901" transform="translate(314.294189453125,192.8388671875)"/>
<path d="M0 0 C1.10479706 -0.00960754 2.20959412 -0.01921509 3.34786987 -0.02911377 C4.54163239 -0.03336365 5.7353949 -0.03761353 6.96533203 -0.04199219 C8.19220734 -0.04769226 9.41908264 -0.05339233 10.68313599 -0.05926514 C13.28061052 -0.06871763 15.87809706 -0.0752501 18.47558594 -0.07910156 C22.45024503 -0.08881125 26.424388 -0.11983497 30.39892578 -0.15136719 C32.92105812 -0.1578968 35.44319417 -0.16314743 37.96533203 -0.16699219 C39.15504608 -0.17933899 40.34476013 -0.19168579 41.57052612 -0.20440674 C43.23717819 -0.19990509 43.23717819 -0.19990509 44.9375 -0.1953125 C45.91218231 -0.19895813 46.88686462 -0.20260376 47.89108276 -0.20635986 C51.39184903 0.26888085 54.08403467 1.64702295 56.59814453 4.16113281 C56.70227628 5.56860535 56.73775474 6.98123323 56.74531555 8.39253235 C56.75247086 9.30526917 56.75962616 10.21800598 56.76699829 11.15840149 C56.76968719 12.16775253 56.7723761 13.17710358 56.77514648 14.21704102 C56.78171768 15.27390106 56.78828888 16.33076111 56.7950592 17.41964722 C56.81484712 20.93373679 56.82646672 24.44778353 56.83642578 27.96191406 C56.84050131 29.15855368 56.84457684 30.35519329 56.84877586 31.58809471 C56.8696596 37.92095138 56.88395159 44.25378623 56.89331055 50.58666992 C56.90438257 57.14090411 56.93878545 63.69479949 56.97848225 70.24891376 C57.00457976 75.27685697 57.01299626 80.30471863 57.01659203 85.33272362 C57.02147539 87.74931312 57.03313871 90.16589857 57.05163002 92.58242226 C57.07587599 95.96090445 57.07508279 99.33849917 57.06811523 102.71704102 C57.08092529 103.72031937 57.09373535 104.72359772 57.10693359 105.75727844 C57.05658249 112.43706956 57.05658249 112.43706956 54.93841553 115.78253174 C51.9907289 117.51894772 50.10157975 117.66229987 46.68383789 117.6628418 C45.49257797 117.67222275 44.30131805 117.6816037 43.07395935 117.69126892 C41.7915889 117.68003494 40.50921844 117.66880096 39.18798828 117.65722656 C37.20950645 117.65940941 37.20950645 117.65940941 35.1910553 117.66163635 C32.40263872 117.66301924 29.61473722 117.65048036 26.82641602 117.62768555 C23.25280581 117.59927264 19.68004937 117.60204669 16.10637569 117.61477566 C12.69599027 117.62340201 9.28585927 117.60828972 5.87548828 117.59472656 C4.5910936 117.5976622 3.30669891 117.60059784 1.98338318 117.60362244 C0.79527542 117.59093826 -0.39283234 117.57825409 -1.61694336 117.56518555 C-2.66411026 117.55978256 -3.71127716 117.55437958 -4.79017639 117.54881287 C-7.76468276 117.10727439 -8.6238428 116.52957988 -10.40185547 114.16113281 C-11.56025102 111.84434171 -11.53237709 110.50913736 -11.54229736 107.93009949 C-11.55086258 106.5989637 -11.55086258 106.5989637 -11.55960083 105.24093628 C-11.56071869 104.26480377 -11.56183655 103.28867126 -11.56298828 102.28295898 C-11.56795319 101.25681992 -11.57291809 100.23068085 -11.57803345 99.17344666 C-11.59268002 95.76699155 -11.59946139 92.36058302 -11.60498047 88.95410156 C-11.61073006 86.59239195 -11.61648782 84.23068235 -11.62225342 81.86897278 C-11.63277065 76.91158836 -11.63860852 71.95422019 -11.64208984 66.99682617 C-11.6475747 60.6411959 -11.67159971 54.28577986 -11.7000618 47.93021679 C-11.7186762 43.04978303 -11.72389316 38.16940097 -11.72542572 33.28893471 C-11.7284557 30.94575136 -11.7364958 28.602569 -11.7496109 26.25942039 C-11.76664528 22.98194417 -11.76479725 19.70499264 -11.75830078 16.42749023 C-11.76751556 15.45743042 -11.77673035 14.48737061 -11.78622437 13.48791504 C-11.7334864 5.00420688 -11.7334864 5.00420688 -8.40185547 1.16113281 C-5.33639186 0.13931161 -3.21145862 0.02253422 0 0 Z " fill="#FEB902" transform="translate(150.40185546875,192.8388671875)"/>
<path d="M0 0 C25.41089397 7.62192156 43.73839677 6.20117062 68.88598633 -1.07128906 C76.1978831 -3.16895914 83.02600205 -4.85970663 90.6875 -3.875 C94.36384546 -1.77423117 96.15972457 0.22950334 97.6875 4.125 C98.89989203 15.9810662 97.10557803 26.52513432 89.6875 36.125 C89.31496094 36.65222656 88.94242187 37.17945313 88.55859375 37.72265625 C79.01745043 50.22582615 61.94337395 58.07205717 46.6875 60.125 C23.19701023 61.75359183 1.22209864 59.84503165 -17.3215332 44.14477539 C-26.65284447 35.76668624 -32.15212016 26.22997447 -33.59375 13.67578125 C-33.84947176 7.39994294 -32.35664932 2.61630698 -28.3125 -2.3125 C-19.51119654 -6.89651222 -8.83743261 -2.68138375 0 0 Z " fill="#FCB803" transform="translate(212.3125,363.875)"/>
<path d="M0 0 C25.41089397 7.62192156 43.73839677 6.20117062 68.88598633 -1.07128906 C76.1978831 -3.16895914 83.02600205 -4.85970663 90.6875 -3.875 C94.36384546 -1.77423117 96.15972457 0.22950334 97.6875 4.125 C98.89989203 15.9810662 97.10557803 26.52513432 89.6875 36.125 C89.31496094 36.65222656 88.94242187 37.17945313 88.55859375 37.72265625 C79.01745043 50.22582615 61.94337395 58.07205717 46.6875 60.125 C23.19701023 61.75359183 1.22209864 59.84503165 -17.3215332 44.14477539 C-26.65284447 35.76668624 -32.15212016 26.22997447 -33.59375 13.67578125 C-33.84947176 7.39994294 -32.35664932 2.61630698 -28.3125 -2.3125 C-19.51119654 -6.89651222 -8.83743261 -2.68138375 0 0 Z M-23.3125 5.125 C-25.66804226 9.83608453 -24.45629994 16.20406254 -23.0546875 21.12890625 C-19.06800151 31.8509933 -10.14304567 39.81465601 -0.1328125 44.84765625 C18.74301945 53.39668263 38.21264502 54.75640497 57.91015625 48.0234375 C70.3714751 43.13973479 82.04521402 35.4855883 87.8515625 22.99609375 C89.4548695 17.48940849 89.23957923 11.79564238 88.6875 6.125 C87.47534226 4.69473536 87.47534226 4.69473536 83.90234375 4.8515625 C77.72467677 4.92241571 72.12210998 6.72035873 66.25 8.5 C44.6773914 14.90538529 25.52370973 16.16121582 3.6875 10.125 C1.14763857 9.43167706 -1.39265785 8.74028432 -3.93481445 8.05541992 C-5.55008344 7.61626719 -7.16224167 7.16542792 -8.77026367 6.70043945 C-13.77794575 5.30768641 -18.11327922 4.91278691 -23.3125 5.125 Z " fill="#0E3D48" transform="translate(212.3125,363.875)"/>
<path d="M0 0 C1.27431381 0.02474396 1.27431381 0.02474396 2.57437134 0.04998779 C4.37158564 0.08747314 6.16873836 0.12801774 7.96582031 0.17138672 C10.70891269 0.23397231 13.45182251 0.27551012 16.1953125 0.31640625 C17.9427379 0.35546986 19.69013569 0.39579324 21.4375 0.4375 C22.2553598 0.44702698 23.0732196 0.45655396 23.91586304 0.46636963 C28.46380369 0.6022142 31.74800676 0.90112814 35.3515625 3.984375 C37.44070211 8.71792388 36.25799889 14.81484074 36.0390625 19.859375 C36.00361328 20.93574219 35.96816406 22.01210938 35.93164062 23.12109375 C35.50735458 33.3926157 35.50735458 33.3926157 33.3515625 37.984375 C31.04335742 39.13847754 29.74371974 39.1054047 27.17724609 39.09790039 C25.88613419 39.09778709 25.88613419 39.09778709 24.56893921 39.09767151 C23.63868927 39.09251022 22.70843933 39.08734894 21.75 39.08203125 C20.79839996 39.0806163 19.84679993 39.07920135 18.86636353 39.07774353 C15.81973153 39.07213512 12.77317237 39.05958119 9.7265625 39.046875 C7.66406356 39.04186108 5.60156347 39.03729799 3.5390625 39.03320312 C-1.52346567 39.02216296 -6.58593923 39.00489267 -11.6484375 38.984375 C-13.54954144 34.95986823 -13.90546644 31.72577266 -13.9140625 27.29296875 C-13.91792969 25.38161133 -13.91792969 25.38161133 -13.921875 23.43164062 C-13.91768555 22.77333252 -13.91349609 22.11502441 -13.90917969 21.43676758 C-13.89845062 19.4243366 -13.90910874 17.41279447 -13.921875 15.40039062 C-13.91929687 14.12744141 -13.91671875 12.85449219 -13.9140625 11.54296875 C-13.91180664 10.38079834 -13.90955078 9.21862793 -13.90722656 8.02124023 C-13.65595767 5.07262349 -13.3496692 3.38546703 -11.6484375 0.984375 C-7.73889894 -0.31880452 -4.06830723 -0.08723534 0 0 Z " fill="#141F28" transform="translate(364.6484375,22.015625)"/>
<path d="M0 0 C0.905793 0.00565979 1.811586 0.01131958 2.74482727 0.01715088 C5.63901536 0.03954884 8.53196715 0.08975108 11.42578125 0.140625 C13.38735192 0.1606856 15.34894198 0.17893714 17.31054688 0.1953125 C22.12026831 0.23942482 26.92906515 0.30847559 31.73828125 0.390625 C31.73828125 1.050625 31.73828125 1.710625 31.73828125 2.390625 C32.72828125 2.720625 33.71828125 3.050625 34.73828125 3.390625 C36.88523116 7.68452483 35.9241359 13.42391079 35.92358398 18.1940918 C35.92576923 20.31644781 35.94392645 22.43828295 35.96289062 24.56054688 C35.96582492 25.90885239 35.96780948 27.25716037 35.96875 28.60546875 C35.97285889 29.83386475 35.97696777 31.06226074 35.98120117 32.32788086 C35.73828125 35.390625 35.73828125 35.390625 33.73828125 38.390625 C31.88551331 38.78503418 31.88551331 38.78503418 29.61157227 38.81054688 C28.76051407 38.82645874 27.90945587 38.84237061 27.03260803 38.85876465 C25.65134987 38.85906677 25.65134987 38.85906677 24.2421875 38.859375 C23.29770248 38.86698853 22.35321747 38.87460205 21.38011169 38.88244629 C19.38030647 38.89326369 17.38044467 38.89609376 15.38061523 38.89160156 C12.31593806 38.89062981 9.25376804 38.93221997 6.18945312 38.9765625 C4.24870315 38.98176964 2.30794445 38.98445769 0.3671875 38.984375 C-0.55162704 39.00077026 -1.47044159 39.01716553 -2.417099 39.03405762 C-8.69810437 38.9656349 -8.69810437 38.9656349 -11.33862305 36.27172852 C-12.40666986 32.93821345 -12.64996685 30.20218801 -12.66015625 26.69921875 C-12.66402344 25.42498047 -12.66789062 24.15074219 -12.671875 22.83789062 C-12.66559082 22.17958252 -12.65930664 21.52127441 -12.65283203 20.84301758 C-12.63673539 18.83020518 -12.65272231 16.81939196 -12.671875 14.80664062 C-12.66800781 13.53369141 -12.66414063 12.26074219 -12.66015625 10.94921875 C-12.65677246 9.78704834 -12.65338867 8.62487793 -12.64990234 7.42749023 C-11.61502293 -0.66865126 -6.97367069 -0.16335607 0 0 Z " fill="#141F28" transform="translate(112.26171875,22.609375)"/>
<path d="M0 0 C0.495 0.99 0.495 0.99 1 2 C0.34 2 -0.32 2 -1 2 C-1.33 2.66 -1.66 3.32 -2 4 C-3.98 4 -5.96 4 -8 4 C-6.61106131 6.31083369 -6.61106131 6.31083369 -4 8 C-1.73903008 7.78817797 0.28860151 7.20372337 2.47265625 6.5859375 C6.62606945 5.62301327 10.76179645 5.84073557 15 6 C16.29376578 8.58753156 16.16832397 10.54958985 16.1875 13.4375 C16.20167969 14.40558594 16.21585937 15.37367188 16.23046875 16.37109375 C16 19 16 19 14 22 C13.67 17.71 13.34 13.42 13 9 C5.26969168 8.56197623 -1.06597536 10.14093601 -8.4375 12.375 C-19.94415832 15.79158171 -30.25860522 18.34404409 -42.3125 18.1875 C-43.75592773 18.1865332 -43.75592773 18.1865332 -45.22851562 18.18554688 C-49.64345583 18.15804898 -53.67662243 17.9660506 -58 17 C-58 16.67 -58 16.34 -58 16 C-57.12263184 15.97494385 -56.24526367 15.9498877 -55.34130859 15.92407227 C-52.06482809 15.82854616 -48.78850102 15.72933757 -45.51220703 15.62768555 C-44.09818835 15.58455749 -42.68412498 15.54286832 -41.27001953 15.50268555 C-39.2293556 15.4444425 -37.18891205 15.38090859 -35.1484375 15.31640625 C-33.92302246 15.27974854 -32.69760742 15.24309082 -31.43505859 15.20532227 C-28.22215658 15.01327887 -25.16058413 14.5944606 -22 14 C-25.22714884 10.86776731 -26.92578345 10.01312931 -31.515625 9.95703125 C-35.02522039 10.2234479 -38.50814416 10.5599305 -42 11 C-38.88829904 9.22292137 -36.35889497 8.6891516 -32.8125 8.3125 C-21.62590221 6.75666284 -10.81627509 3.16333375 0 0 Z " fill="#1A3E35" transform="translate(287,361)"/>
<path d="M0 0 C1.828125 0.05078125 1.828125 0.05078125 4.25 0.3125 C5.15878906 0.40917969 6.06757813 0.50585938 7.00390625 0.60546875 C9.01889939 0.87080683 11.02777948 1.18698956 13.02734375 1.55078125 C21.65474568 3.1184303 29.32223724 2.88818042 38 2 C38 2.66 38 3.32 38 4 C38.61875 4.12375 39.2375 4.2475 39.875 4.375 C42 5 42 5 44 7 C39.00334278 8.62708049 34.84518605 9.23937914 29.53515625 9.1953125 C28.51789711 9.19106766 28.51789711 9.19106766 27.48008728 9.18673706 C25.34070234 9.17565416 23.2017557 9.1505736 21.0625 9.125 C19.60091756 9.11495476 18.13932847 9.10583163 16.67773438 9.09765625 C13.11835021 9.07575425 9.55921797 9.04130866 6 9 C6 8.34 6 7.68 6 7 C4.02 7 2.04 7 0 7 C-0.33 6.34 -0.66 5.68 -1 5 C-3.01669827 3.86649466 -3.01669827 3.86649466 -5 3 C-4.360625 2.690625 -3.72125 2.38125 -3.0625 2.0625 C-1.06389179 1.1654837 -1.06389179 1.1654837 0 0 Z " fill="#0D3E49" transform="translate(222,368)"/>
<path d="M0 0 C2.4377963 -0.05397335 4.87439685 -0.09365616 7.3125 -0.125 C8.00279297 -0.14175781 8.69308594 -0.15851563 9.40429688 -0.17578125 C13.17135396 -0.21217794 14.78431704 -0.14378864 18 2 C18.93205923 4.79617768 19.12747565 6.48219555 19.13371277 9.37147522 C19.13797775 10.26460922 19.14224274 11.15774323 19.14663696 12.07794189 C19.14618378 13.05519226 19.14573059 14.03244263 19.14526367 15.03930664 C19.14862228 16.07041061 19.1519809 17.10151459 19.15544128 18.16386414 C19.16495691 21.57930702 19.16689451 24.99470093 19.16796875 28.41015625 C19.17118019 30.7776237 19.17454417 33.14509095 19.17805481 35.51255798 C19.18404711 40.47655701 19.18589453 45.44053862 19.18530273 50.40454102 C19.18520094 56.77944723 19.1988703 63.15424248 19.21607494 69.52912235 C19.22716613 74.41800962 19.22922286 79.30686979 19.22869301 84.19576836 C19.22987683 86.54700542 19.2343209 88.89824311 19.24202538 91.24946785 C19.25177004 94.52975489 19.24896948 97.80979731 19.24291992 101.09008789 C19.24853943 102.06936249 19.25415894 103.04863708 19.25994873 104.05758667 C19.25575424 104.94790085 19.25155975 105.83821503 19.24723816 106.75550842 C19.24778293 107.53144883 19.24832769 108.30738924 19.24888897 109.10684299 C19 111 19 111 17 113 C17 77.03 17 41.06 17 4 C16.01 4 15.02 4 14 4 C14 3.01 14 2.02 14 1 C9.38 1 4.76 1 0 1 C0 0.67 0 0.34 0 0 Z " fill="#F0BB35" transform="translate(352,194)"/>
<path d="M0 0 C0.33 1.32 0.66 2.64 1 4 C-3.96073422 5.32286246 -8.91111512 5.08893197 -14 5 C-14 4.34 -14 3.68 -14 3 C-15.45947705 3.06006078 -16.91779272 3.1488689 -18.375 3.25 C-19.18710938 3.29640625 -19.99921875 3.3428125 -20.8359375 3.390625 C-23.18838927 3.7922092 -23.18838927 3.7922092 -24.2890625 6.046875 C-24.52367187 6.69140625 -24.75828125 7.3359375 -25 8 C-27.97 7.505 -27.97 7.505 -31 7 C-28.76687117 -0.01840491 -28.76687117 -0.01840491 -27 -3 C-18.87093455 -7.06453273 -8.0006931 -2.61628504 0 0 Z " fill="#0E3D48" transform="translate(212,364)"/>
<path d="M0 0 C1.80791016 0.01933594 1.80791016 0.01933594 3.65234375 0.0390625 C4.90660156 0.07257813 6.16085938 0.10609375 7.453125 0.140625 C8.72285156 0.15867187 9.99257812 0.17671875 11.30078125 0.1953125 C14.43565577 0.24245347 17.5690106 0.30824836 20.703125 0.390625 C20.703125 1.380625 20.703125 2.370625 20.703125 3.390625 C20.373125 3.720625 20.043125 4.050625 19.703125 4.390625 C20.363125 5.050625 21.023125 5.710625 21.703125 6.390625 C18.9053985 7.78948825 16.57923608 7.52037097 13.453125 7.5234375 C12.2053125 7.52472656 10.9575 7.52601563 9.671875 7.52734375 C8.3621875 7.52347656 7.0525 7.51960938 5.703125 7.515625 C3.73859375 7.52142578 3.73859375 7.52142578 1.734375 7.52734375 C-0.13734375 7.52541016 -0.13734375 7.52541016 -2.046875 7.5234375 C-3.19671875 7.52230957 -4.3465625 7.52118164 -5.53125 7.52001953 C-8.296875 7.390625 -8.296875 7.390625 -10.296875 6.390625 C-10.296875 4.390625 -10.296875 4.390625 -8.69042969 2.29003906 C-5.59900328 -0.16317365 -3.91063984 -0.07378566 0 0 Z " fill="#0D3E49" transform="translate(239.296875,416.609375)"/>
<path d="M0 0 C1.32 0.33 2.64 0.66 4 1 C3.67 1.99 3.34 2.98 3 4 C2.89558316 6.16363909 2.84488469 8.33003513 2.82421875 10.49609375 C2.80037109 11.77677734 2.77652344 13.05746094 2.75195312 14.37695312 C2.71682808 16.40904745 2.68747995 18.44053921 2.67407227 20.47290039 C2.65857469 22.4391855 2.61671907 24.40520692 2.57421875 26.37109375 C2.55963623 27.54599365 2.54505371 28.72089355 2.5300293 29.93139648 C1.90520566 33.54881166 0.81126059 34.73037445 -2 37 C-4.70715134 34.29284866 -3.23009594 26.38288935 -3.24023438 22.47241211 C-3.24991605 20.20714266 -3.28091409 17.9427897 -3.3125 15.67773438 C-3.31903233 14.23698456 -3.3242819 12.79622825 -3.328125 11.35546875 C-3.3374707 10.04215576 -3.34681641 8.72884277 -3.35644531 7.37573242 C-2.98618059 3.86912263 -2.40491584 2.50373169 0 0 Z " fill="#0F3D48" transform="translate(97,22)"/>
<path d="M0 0 C0.66 0 1.32 0 2 0 C4.8394052 3.67452438 6 5.26886581 6 10 C7.32 10.33 8.64 10.66 10 11 C10 11.66 10 12.32 10 13 C10.66 13 11.32 13 12 13 C11.67 14.32 11.34 15.64 11 17 C12.175625 17.0928125 12.175625 17.0928125 13.375 17.1875 C14.24125 17.455625 15.1075 17.72375 16 18 C17.3125 20.5625 17.3125 20.5625 18 23 C16.68 23.33 15.36 23.66 14 24 C13.34 22.68 12.68 21.36 12 20 C11.34 20 10.68 20 10 20 C9.67 20.66 9.34 21.32 9 22 C7.55620057 20.61068357 6.12022488 19.21323422 4.6875 17.8125 C3.88699219 17.03519531 3.08648437 16.25789063 2.26171875 15.45703125 C0.06212173 13.0674863 -1.55311689 10.90322297 -3 8 C-2.78233633 4.29971764 -2.64508959 2.64508959 0 0 Z " fill="#0E3D48" transform="translate(187,387)"/>
<path d="M0 0 C3.3 0.66 6.6 1.32 10 2 C8 5 8 5 5 6 C6.32 6.66 7.64 7.32 9 8 C9 8.66 9 9.32 9 10 C10.98 10 12.96 10 15 10 C15 10.66 15 11.32 15 12 C7.24156192 11.26110114 -0.01412255 9.23347084 -7.51171875 7.171875 C-13.02273657 5.68673942 -18.31538339 4.54139206 -24 4 C-24 9.28 -24 14.56 -24 20 C-24.66 19.67 -25.32 19.34 -26 19 C-26.05398987 16.72942623 -26.09278742 14.45848712 -26.125 12.1875 C-26.14820313 10.92292969 -26.17140625 9.65835937 -26.1953125 8.35546875 C-26 5 -26 5 -24 2 C-21.8359375 1.70703125 -21.8359375 1.70703125 -19.375 1.8125 C-18.55773437 1.83957031 -17.74046875 1.86664063 -16.8984375 1.89453125 C-15.95871094 1.94673828 -15.95871094 1.94673828 -15 2 C-15 2.66 -15 3.32 -15 4 C-10.38 3.67 -5.76 3.34 -1 3 C-0.67 2.01 -0.34 1.02 0 0 Z " fill="#224232" transform="translate(213,365)"/>
<path d="M0 0 C1.10424427 2.76061067 1.04167422 3.88237115 0.03125 6.734375 C-7.94804513 22.44870113 -7.94804513 22.44870113 -16 26 C-16 24.68 -16 23.36 -16 22 C-15.401875 21.95875 -14.80375 21.9175 -14.1875 21.875 C-10.85955597 20.54382239 -10.37948336 18.19789325 -9 15 C-8.33333333 13.66666667 -7.66666667 12.33333333 -7 11 C-8.32 10.67 -9.64 10.34 -11 10 C-11 11.65 -11 13.3 -11 15 C-11.928125 15.12375 -11.928125 15.12375 -12.875 15.25 C-15.17469437 15.78131326 -15.17469437 15.78131326 -15.9375 17.9375 C-17.3887665 20.75466437 -19.12878124 20.85151249 -22 22 C-23.34410262 24.01735205 -23.34410262 24.01735205 -24 26 C-26.31 26 -28.62 26 -31 26 C-28.97021926 24.47422802 -26.93757318 22.95442034 -24.88671875 21.45703125 C-17.29213931 15.77795852 -11.2117567 10.0684895 -8 1 C-7.67 1 -7.34 1 -7 1 C-7 2.98 -7 4.96 -7 7 C-5.04105639 6.88693303 -5.04105639 6.88693303 -3 6 C-1.76709799 3.54295238 -1.76709799 3.54295238 -1 1 C-0.67 0.67 -0.34 0.34 0 0 Z " fill="#103B43" transform="translate(308,383)"/>
<path d="M0 0 C0.33 0.66 0.66 1.32 1 2 C0.34 2 -0.32 2 -1 2 C-1.33 2.66 -1.66 3.32 -2 4 C-3.98 4 -5.96 4 -8 4 C-6.61106131 6.31083369 -6.61106131 6.31083369 -4 8 C-1.73903008 7.78817797 0.28860151 7.20372337 2.47265625 6.5859375 C6.62606945 5.62301327 10.76179645 5.84073557 15 6 C16.29376578 8.58753156 16.16832397 10.54958985 16.1875 13.4375 C16.20167969 14.40558594 16.21585937 15.37367188 16.23046875 16.37109375 C16 19 16 19 14 22 C13.505 15.565 13.505 15.565 13 9 C5.7037273 8.33670248 -0.2029525 10.02965884 -7.05834961 12.30932617 C-10.82095622 13.52562157 -13.22300695 14.20459978 -17 13 C-16.01 12.67 -15.02 12.34 -14 12 C-14.20625 11.4225 -14.4125 10.845 -14.625 10.25 C-15 8 -15 8 -14.4375 6 C-12.28949722 3.01147439 -9.86649813 2.70845047 -6.375 1.75 C-4.59222656 1.24726563 -4.59222656 1.24726563 -2.7734375 0.734375 C-1.85820312 0.49203125 -0.94296875 0.2496875 0 0 Z " fill="#163E3B" transform="translate(287,361)"/>
<path d="M0 0 C5.0383084 0.89902901 9.78839009 2.48501444 14.6484375 4.0625 C20.70728843 5.75728348 26.61053693 6.16728664 32.875 6.125 C33.57173828 6.12306641 34.26847656 6.12113281 34.98632812 6.11914062 C40.06305666 6.07663778 44.97840894 5.71737015 50 5 C46.68685476 8.31314524 43.11223389 8.14007979 38.578125 8.31640625 C37.55332031 8.35830078 36.52851563 8.40019531 35.47265625 8.44335938 C34.40917969 8.48267578 33.34570312 8.52199219 32.25 8.5625 C30.63158203 8.62727539 30.63158203 8.62727539 28.98046875 8.69335938 C26.32043572 8.79928989 23.66031188 8.90136421 21 9 C20.67 9.99 20.34 10.98 20 12 C19.01 12 18.02 12 17 12 C17 12.66 17 13.32 17 14 C15.741875 13.87625 14.48375 13.7525 13.1875 13.625 C12.47980469 13.55539062 11.77210938 13.48578125 11.04296875 13.4140625 C9 13 9 13 6 11 C7.65 10.34 9.3 9.68 11 9 C10.34 7.35 9.68 5.7 9 4 C7.02 4 5.04 4 3 4 C3 3.34 3 2.68 3 2 C2.01 2 1.02 2 0 2 C0 1.34 0 0.68 0 0 Z " fill="#1C3F35" transform="translate(212,409)"/>
<path d="M0 0 C0.33 0 0.66 0 1 0 C1.01030746 0.73693588 1.02061493 1.47387177 1.03123474 2.23313904 C1.12904643 9.16421076 1.23153716 16.09519902 1.33933926 23.02612209 C1.39460027 26.58972968 1.44802518 30.15334543 1.49731445 33.71704102 C1.55400532 37.81015245 1.61857318 41.9031061 1.68359375 45.99609375 C1.70030624 47.28148544 1.71701874 48.56687714 1.73423767 49.89122009 C1.75418289 51.07236893 1.77412811 52.25351776 1.79467773 53.47045898 C1.81022202 54.51636703 1.8257663 55.56227509 1.84178162 56.63987732 C1.73699824 58.95640697 1.73699824 58.95640697 3 60 C4.41327947 60.15620555 5.8335459 60.25056173 7.25390625 60.31640625 C8.10791016 60.35830078 8.96191406 60.40019531 9.84179688 60.44335938 C10.73962891 60.48267578 11.63746094 60.52199219 12.5625 60.5625 C13.46419922 60.60568359 14.36589844 60.64886719 15.29492188 60.69335938 C17.52978485 60.79978142 19.76476308 60.90179988 22 61 C22.33 61.66 22.66 62.32 23 63 C16.73 63 10.46 63 4 63 C3.34 64.65 2.68 66.3 2 68 C3.32 68.66 4.64 69.32 6 70 C0.76275536 69.58923571 -2.29192047 68.81714069 -6 65 C-6.8125 62.75 -6.8125 62.75 -7 61 C-1.125 61.875 -1.125 61.875 0 63 C0.33 62.01 0.66 61.02 1 60 C0.34 59.67 -0.32 59.34 -1 59 C-0.67 39.53 -0.34 20.06 0 0 Z " fill="#153B42" transform="translate(8,254)"/>
<path d="M0 0 C1.02083333 0.875 2.04166667 1.75 3.0625 2.625 C3.70058594 3.17027344 4.33867187 3.71554687 4.99609375 4.27734375 C6.28665645 5.38677484 7.57105108 6.50344249 8.84765625 7.62890625 C12.07856601 10.46216558 15.20459398 12.92977853 19 15 C18.38125 15.28875 17.7625 15.5775 17.125 15.875 C14.58408581 17.22018987 13.28874849 18.42250301 12 21 C7.58110387 19.64978174 5.65654657 17.73884332 3 14 C3.33 13.34 3.66 12.68 4 12 C6.475 13.98 6.475 13.98 9 16 C8.67 16.66 8.34 17.32 8 18 C9.32 17.67 10.64 17.34 12 17 C11.37466625 14.47636012 11.37466625 14.47636012 10 12 C7.45224694 11.10613836 7.45224694 11.10613836 5 11 C5.33 9.68 5.66 8.36 6 7 C5.34 7 4.68 7 4 7 C4 6.34 4 5.68 4 5 C2.68 4.67 1.36 4.34 0 4 C0 2.68 0 1.36 0 0 Z " fill="#18403C" transform="translate(193,393)"/>
<path d="M0 0 C1.93341947 1.93341947 1.17449133 5.37479121 1.1875 7.9375 C1.20167969 9.20464844 1.21585937 10.47179687 1.23046875 11.77734375 C1 15 1 15 -1 17 C-1 12.05 -1 7.1 -1 2 C-7.6507363 2.4055327 -12.10599696 2.864892 -18 6 C-23.3074192 7.43396499 -28.48744658 8.29013439 -34 8 C-29.76157109 5.17438073 -25.25709757 4.21229802 -20.375 2.875 C-19.41464844 2.59785156 -18.45429688 2.32070313 -17.46484375 2.03515625 C-11.4534816 0.37938079 -6.23684763 -0.392175 0 0 Z " fill="#D6B12D" transform="translate(300,369)"/>
<path d="M0 0 C4.51617599 -0.07654536 8.59085217 -0.10228696 13 1 C13 1.33 13 1.66 13 2 C11.906875 2.0825 10.81375 2.165 9.6875 2.25 C6.06870972 2.67166987 6.06870972 2.67166987 4.125 4.625 C2.55049176 7.94896183 2.06079378 10.29157949 2 14 C2.90360912 16.47175589 3.967779 18.75091973 5.1875 21.08203125 C5.455625 21.71496094 5.72375 22.34789062 6 23 C5.67 23.66 5.34 24.32 5 25 C0.25592302 17.1223814 -1.30567709 11.17031264 -1 2 C-0.67 1.34 -0.34 0.68 0 0 Z " fill="#E2B322" transform="translate(189,369)"/>
<path d="M0 0 C0.103125 0.639375 0.20625 1.27875 0.3125 1.9375 C0.6528125 2.9584375 0.6528125 2.9584375 1 4 C4.28976808 5.09658936 5.71303767 4.79953138 9 4 C6.4449161 6.98093122 3.61718599 8.52359755 0 10 C-2.375 9.6875 -2.375 9.6875 -4 9 C-4 7.68 -4 6.36 -4 5 C-6.97 5 -9.94 5 -13 5 C-10.54278328 3.36185552 -8.65432189 2.38047801 -5.9375 1.375 C-5.24527344 1.11460937 -4.55304688 0.85421875 -3.83984375 0.5859375 C-2 0 -2 0 0 0 Z " fill="#103E4A" transform="translate(277,409)"/>
<path d="M0 0 C0.33 0 0.66 0 1 0 C0.125 6.75 0.125 6.75 -1 9 C-1.66 9 -2.32 9 -3 9 C-3 10.65 -3 12.3 -3 14 C-3.928125 14.12375 -3.928125 14.12375 -4.875 14.25 C-7.17469437 14.78131326 -7.17469437 14.78131326 -7.9375 16.9375 C-9.3887665 19.75466437 -11.12878124 19.85151249 -14 21 C-15.34410262 23.01735205 -15.34410262 23.01735205 -16 25 C-18.31 25 -20.62 25 -23 25 C-20.97021926 23.47422802 -18.93757318 21.95442034 -16.88671875 20.45703125 C-9.29213931 14.77795852 -3.2117567 9.0684895 0 0 Z " fill="#264327" transform="translate(300,384)"/>
<path d="M0 0 C0.99 0.33 1.98 0.66 3 1 C1.71034824 2.37562854 0.37310707 3.70766393 -1 5 C-1.66 5 -2.32 5 -3 5 C-3 17.87 -3 30.74 -3 44 C-5.90978862 41.09021138 -5.34349694 38.04294379 -5.37109375 34.140625 C-5.38012222 33.35862732 -5.3891507 32.57662964 -5.39845276 31.77093506 C-5.41297495 30.11327959 -5.42184688 28.45556654 -5.42553711 26.79785156 C-5.43739159 24.27308938 -5.48651593 21.75080534 -5.53710938 19.2265625 C-5.54657869 17.61459524 -5.55381129 16.00261298 -5.55859375 14.390625 C-5.57812607 13.64041077 -5.59765839 12.89019653 -5.61778259 12.11724854 C-5.56817844 6.29116435 -3.94363991 3.96043465 0 0 Z " fill="#16363F" transform="translate(350,18)"/>
<path d="M0 0 C0.33 0 0.66 0 1 0 C1 14.19 1 28.38 1 43 C-0.98 43.495 -0.98 43.495 -3 44 C-4.75 42.5625 -4.75 42.5625 -6 41 C-4.35 41 -2.7 41 -1 41 C-0.67 27.47 -0.34 13.94 0 0 Z " fill="#1A3142" transform="translate(380,81)"/>
<path d="M0 0 C-6.54016973 2.9384489 -11.88178015 3.37895557 -19 3.1875 C-19.96550781 3.17396484 -20.93101562 3.16042969 -21.92578125 3.14648438 C-24.28445425 3.11145458 -26.64191771 3.06234084 -29 3 C-29.33 2.34 -29.66 1.68 -30 1 C-29.39003174 0.97494385 -28.78006348 0.9498877 -28.15161133 0.92407227 C-25.37172102 0.8075942 -22.5921266 0.68510368 -19.8125 0.5625 C-18.85279297 0.52318359 -17.89308594 0.48386719 -16.90429688 0.44335938 C-15.97294922 0.40146484 -15.04160156 0.35957031 -14.08203125 0.31640625 C-13.22843018 0.27974854 -12.3748291 0.24309082 -11.49536133 0.20532227 C-8.96963987 0.05630607 -8.96963987 0.05630607 -6.43237305 -0.58227539 C-3.90297508 -1.01666262 -2.40891501 -0.80297167 0 0 Z " fill="#D5B12C" transform="translate(265,378)"/>
<path d="M0 0 C1.29376578 2.58753156 1.16832397 4.54958985 1.1875 7.4375 C1.20167969 8.40558594 1.21585937 9.37367188 1.23046875 10.37109375 C1 13 1 13 -1 16 C-1.495 9.565 -1.495 9.565 -2 3 C-7.48677955 2.91558801 -12.59280411 3.07962623 -18 4 C-17 2 -17 2 -14.0625 0.875 C-9.41625375 -0.363999 -4.77103234 -0.17279393 0 0 Z " fill="#37491E" transform="translate(302,367)"/>
<path d="M0 0 C5.50062041 -0.19300422 9.70772542 0.26983331 15 2 C18.84471478 3.18836639 22.75790096 3.33233172 26.75 3.5625 C27.44738281 3.60568359 28.14476562 3.64886719 28.86328125 3.69335938 C30.57531922 3.79889596 32.28763561 3.8998991 34 4 C34 4.33 34 4.66 34 5 C8.83905178 5.89270119 8.83905178 5.89270119 0 0 Z " fill="#C2A226" transform="translate(219,411)"/>
<path d="M0 0 C-0.639375 0.12375 -1.27875 0.2475 -1.9375 0.375 C-2.618125 0.58125 -3.29875 0.7875 -4 1 C-4.33 1.66 -4.66 2.32 -5 3 C-6.8203125 3.37890625 -6.8203125 3.37890625 -9.125 3.5625 C-10.33542969 3.67464844 -10.33542969 3.67464844 -11.5703125 3.7890625 C-12.37210938 3.85867187 -13.17390625 3.92828125 -14 4 C-16.37985345 4.23710717 -18.64349728 4.55815574 -21 5 C-21.33 5.66 -21.66 6.32 -22 7 C-22.99 6.67 -23.98 6.34 -25 6 C-16.3461608 1.47540387 -9.83643892 -0.31504609 0 0 Z " fill="#133A42" transform="translate(82,126)"/>
<path d="M0 0 C3 1 3 1 4.75 3.9375 C5.1625 4.948125 5.575 5.95875 6 7 C5.67 7.66 5.34 8.32 5 9 C2 5.25 2 5.25 2 3 C1.34 3 0.68 3 0 3 C0 2.01 0 1.02 0 0 Z M-2 3 C-1.34 3.33 -0.68 3.66 0 4 C-1.32 5.65 -2.64 7.3 -4 9 C-4.33 7.35 -4.66 5.7 -5 4 C-4.01 3.67 -3.02 3.34 -2 3 Z " fill="#204033" transform="translate(187,384)"/>
<path d="M0 0 C-3 2 -3 2 -6.4375 2.75 C-10.79201734 4.27790082 -11.83929044 6.02429441 -14 10 C-14.8125 8.3125 -14.8125 8.3125 -15 6 C-10.32487119 0.41581836 -7.08094234 -0.13360269 0 0 Z " fill="#183C43" transform="translate(16,215)"/>
<path d="M0 0 C4.13621084 3.3810038 7.81316569 6.66590534 11 11 C9.35 10.67 7.7 10.34 6 10 C6 9.01 6 8.02 6 7 C5.34 7 4.68 7 4 7 C4 6.34 4 5.68 4 5 C2.68 4.67 1.36 4.34 0 4 C0 2.68 0 1.36 0 0 Z " fill="#374B23" transform="translate(193,393)"/>
<path d="M0 0 C0 0.66 0 1.32 0 2 C-0.66 2 -1.32 2 -2 2 C-2.33 3.32 -2.66 4.64 -3 6 C-3.33 5.67 -3.66 5.34 -4 5 C-5.51928038 4.92820036 -7.04167482 4.91607993 -8.5625 4.9375 C-9.80193359 4.95103516 -9.80193359 4.95103516 -11.06640625 4.96484375 C-12.02353516 4.98224609 -12.02353516 4.98224609 -13 5 C-10.54278328 3.36185552 -8.65432189 2.38047801 -5.9375 1.375 C-5.24527344 1.11460937 -4.55304688 0.85421875 -3.83984375 0.5859375 C-2 0 -2 0 0 0 Z " fill="#344625" transform="translate(277,409)"/>
<path d="M0 0 C2.31 0.33 4.62 0.66 7 1 C7 1.66 7 2.32 7 3 C8.98 3.66 10.96 4.32 13 5 C13 5.66 13 6.32 13 7 C7.83572624 5.7605743 4.24563172 4.21011179 0 1 C0 0.67 0 0.34 0 0 Z " fill="#DFB826" transform="translate(206,404)"/>
<path d="M0 0 C4.84688192 0.78175515 9.3766367 2.39844278 14 4 C12.02 4.99 12.02 4.99 10 6 C9.67 5.34 9.34 4.68 9 4 C7.02 4 5.04 4 3 4 C3 3.34 3 2.68 3 2 C2.01 2 1.02 2 0 2 C0 1.34 0 0.68 0 0 Z " fill="#314722" transform="translate(212,409)"/>
<path d="M0 0 C1.32 0.33 2.64 0.66 4 1 C2.71283353 2.00578589 1.42011342 3.00446798 0.125 4 C-0.95394531 4.8353125 -0.95394531 4.8353125 -2.0546875 5.6875 C-4 7 -4 7 -6 7 C-6 6.34 -6 5.68 -6 5 C-5.34 5 -4.68 5 -4 5 C-4 4.34 -4 3.68 -4 3 C-3.01 2.67 -2.02 2.34 -1 2 C-0.67 1.34 -0.34 0.68 0 0 Z " fill="#DBB029" transform="translate(285,400)"/>
<path d="M0 0 C1.77174819 0.08723378 3.54247377 0.19541655 5.3125 0.3125 C6.29863281 0.37050781 7.28476563 0.42851562 8.30078125 0.48828125 C11.24384457 1.04622813 12.18182999 1.68540132 14 4 C9.03083364 3.48594831 4.70973649 2.76615118 0 1 C0 0.67 0 0.34 0 0 Z " fill="#3A4D1E" transform="translate(202,370)"/>
<path d="M0 0 C-6.75 4 -6.75 4 -9 4 C-9 3.01 -9 2.02 -9 1 C-2.25 -1.125 -2.25 -1.125 0 0 Z " fill="#143B40" transform="translate(286,414)"/>
<path d="M0 0 C-2.3129482 2.3129482 -3.47904875 2.49580975 -6.625 3.125 C-7.44226563 3.29257812 -8.25953125 3.46015625 -9.1015625 3.6328125 C-10.04128906 3.81457031 -10.04128906 3.81457031 -11 4 C-7.26280719 0.48264206 -5.13496308 -0.47767098 0 0 Z " fill="#DFB528" transform="translate(275,409)"/>
</svg>
